<svg width="0" height="0" class="hidden">
  <symbol xmlns="http://www.w3.org/2000/svg" viewBox="0 0 130 43.61" id="car">
        <circle cx="28.6" cy="33" r="10.61" fill="black"></circle>
        <circle cx="28.6" cy="33" r="7.58" fill="white"></circle>
        <circle cx="28.6" cy="33" r="0.97" fill="black"></circle>
        <path  d="M28.6,34.79a.41.41,0,1,0,.42.41A.42.42,0,0,0,28.6,34.79Z"></path>
        <path  d="M29.69,36.05v3.34a6.46,6.46,0,0,0,2.66-1.1L30,35.92A1.14,1.14,0,0,1,29.69,36.05Z"></path>
        <path d="M31.53,34.39l2.36,2.37A6.55,6.55,0,0,0,35,34.1H31.66C31.62,34.2,31.57,34.29,31.53,34.39Z"></path>
        <path d="M31.53,31.62a2,2,0,0,1,.12.29H35a6.33,6.33,0,0,0-1.1-2.66Z"></path>
        <path d="M27.22,30.07a2.08,2.08,0,0,1,.3-.12V26.62a6.33,6.33,0,0,0-2.66,1.1Z"></path>
        <path d="M28.6,31.22a.41.41,0,1,0-.41-.41A.41.41,0,0,0,28.6,31.22Z"></path>
        <path d="M32.35,27.72a6.48,6.48,0,0,0-2.66-1.1V30l.3.12Z"></path>
        <path d="M25.68,31.62l-2.37-2.36a6.54,6.54,0,0,0-1.1,2.66h3.34A1.6,1.6,0,0,1,25.68,31.62Z"></path>
        <path d="M24.86,38.29a6.48,6.48,0,0,0,2.66,1.1V36.05c-.11,0-.19-.07-.3-.11Z"></path>
        <path d="M25.55,34.1H22.21a6.46,6.46,0,0,0,1.1,2.66l2.37-2.37C25.64,34.29,25.59,34.2,25.55,34.1Z"></path>
        <path d="M26.81,33A.41.41,0,1,0,26,33a.42.42,0,0,0,.41.41A.39.39,0,0,0,26.81,33Z"></path>
        <path stroke="grey" d="M30.38,33a.42.42,0,0,0,.41.41.43.43,0,0,0,.42-.41.44.44,0,0,0-.42-.42A.43.43,0,0,0,30.38,33Z"></path>
        <path stroke="grey" d="M129.3,20.67c-1.44-2.21-5.13-3-7.93-3.9C101.75,12,95.23,13.59,92,13.12A7.39,7.39,0,0,1,90.16,12c-1.19-.74-2.41-1.38-3.59-2.1C84.65,8.75,75.74,3.89,73.35,3,68.06,1.08,59.71-.48,39.58,1.14,38.76.92,38.27.26,37.41.05a4.89,4.89,0,0,0-2.27.38A6.42,6.42,0,0,1,35,2.14C31,3.8,27.06,5.08,23.15,6.72c-1.63.69-3.32,1.37-5,2.1A32.42,32.42,0,0,1,15,10.31c-1.26.41-2.66.22-4,.54a39.3,39.3,0,0,1-8.09.71,5.75,5.75,0,0,0-1,1.79c.49.15.65.49.62,1.16-.85,1.28-.63,3.09-.62,5.13C0,20.58-.27,24,.2,26.72c-.06.24-.1.47-.16.71a24.32,24.32,0,0,1,.38,2.41A8,8,0,0,1,2.36,31.7c.24.33.35.88.78,1,2.29,1.67,13.93,2,13.93,2l.62,0A11.42,11.42,0,0,1,17.54,33a11,11,0,1,1,22.07,0,17.33,17.33,0,0,1-.4,3.63l61.14-.11A11.32,11.32,0,0,1,99.78,33a11,11,0,0,1,22.07,0,10.36,10.36,0,0,1-.44,3.07H122s4.82-.24,6-.78a3.72,3.72,0,0,0,1.63-2.1l-.31-3.26S130.83,23,129.3,20.67Z"></path>
        <path fill="white" d="M31.65,12.65C28,10.22,29.93,7.38,29.82,7.38a1.21,1.21,0,0,1-.13.12c.08-.09.12-.12.13-.12.94-.83,6.32-4.59,25.4-4.62.6,3.35,1.19,7.74,1.79,11.08C49.34,13.62,34.23,13.75,31.65,12.65Z"></path>
        <path fill="white" d="M80.83,13.89H62.46s-2.69-7.09-3.66-11c.12,0,3.42.17,3.42.17a67.6,67.6,0,0,1,10.66,2.1c3.23,1.07,9.61,5.35,9.72,5.6C80.69,10.79,80.24,12.31,80.83,13.89Z"></path>
        <circle cx="110.83" cy="33" r="10.61" fill="black"></circle>
        <circle cx="110.83" cy="33" r="7.58" fill="white"></circle>
        <circle cx="110.83" cy="33" r="0.97" fill="black"></circle>
        <path d="M109.45,30.07a2.52,2.52,0,0,1,.29-.12V26.62a6.33,6.33,0,0,0-2.66,1.1Z"></path>
        <path d="M110.83,34.79a.41.41,0,1,0,.41.41A.41.41,0,0,0,110.83,34.79Z"></path>
        <path d="M111.93,36.05v3.34a6.46,6.46,0,0,0,2.66-1.1l-2.36-2.37A1.3,1.3,0,0,1,111.93,36.05Z"></path>
        <path d="M113.89,34.1c0,.1-.08.19-.12.29l2.37,2.37a6.54,6.54,0,0,0,1.1-2.66Z"></path>
        <path d="M107.91,31.62l-2.37-2.37a6.48,6.48,0,0,0-1.1,2.66h3.34C107.82,31.81,107.86,31.72,107.91,31.62Z"></path>
        <path d="M109.05,33a.41.41,0,1,0-.82,0,.42.42,0,0,0,.41.41A.41.41,0,0,0,109.05,33Z"></path>
        <path d="M110.83,31.22a.41.41,0,1,0-.41-.41A.42.42,0,0,0,110.83,31.22Z"></path>
        <path d="M114.58,27.72a6.54,6.54,0,0,0-2.66-1.1V30c.1,0,.19.08.29.12Z"></path>
        <path d="M112.62,33a.43.43,0,0,0,.42.41.42.42,0,0,0,.41-.41.43.43,0,0,0-.41-.42A.44.44,0,0,0,112.62,33Z"></path>
        <path d="M107.1,38.29a6.48,6.48,0,0,0,2.66,1.1V36.05l-.29-.11Z"></path>
        <path d="M107.79,34.1h-3.34a6.48,6.48,0,0,0,1.11,2.66l2.36-2.37A1.23,1.23,0,0,1,107.79,34.1Z"></path>
        <path d="M113.89,31.91h3.33a6.33,6.33,0,0,0-1.1-2.66l-2.36,2.37A1.85,1.85,0,0,1,113.89,31.91Z"></path>
  </symbol>
  <symbol enable-background="new 0 0 50 50" id="flag" version="1.1" xml:space="preserve" xmlns="http://www.w3.org/2000/svg" xmlns:xlink="http://www.w3.org/1999/xlink" viewBox="0 0 50 50">
    <rect fill="none" height="50" width="50"></rect>
    <line fill="none" stroke="#000000" stroke-linecap="round" stroke-linejoin="round" stroke-miterlimit="10" stroke-width="2" x1="18.594" x2="3.373" y1="47.92" y2="5.407"></line>
    <path d="  M4.448,8.409c0,0,5.911-6.409,16.179-6.409c6.25,0,9.106,4.073,14.264,4.073C40.046,6.073,44.998,2,44.998,2v26.471  c0,0-3.723,2.037-8.146,2.037c-4.421,0-6.225-2.037-12.217-2.037c-5.683,0-11.025,5.516-11.025,5.516L4.448,8.409z" fill="none" stroke="#000000" stroke-linecap="round" stroke-linejoin="round" stroke-miterlimit="10" stroke-width="2"></path>
    <path d="M4.448,8.409c0,0,3.067-3.248,7.207-4.584l3.164,8.124c0,0-4.086,1.47-7.422,4.605L4.553,8.709"></path>
    <path d="M14.819,11.949l3.412,8.759c0,0,2.683-0.954,4.53-0.954s3.678,0.271,3.678,0.271l-2.477-9.315c0,0-0.7-0.099-1.563-0.099  C18.264,10.611,14.819,11.949,14.819,11.949z"></path>
    <path d="M10.72,25.776l2.89,8.21c0,0,3.997-3.832,7.804-4.91l-3.182-8.368C14.566,22.12,10.72,25.776,10.72,25.776z"></path>
    <path d="M21.676,2.111l2.287,8.598c1.85,0,6.994,2.521,6.994,2.521l-2.028-8.879C27.766,3.916,24.721,2.255,21.676,2.111z"></path>
    <path d="M26.439,20.024l2.355,8.851c1.186,0,4.586,1.449,6.065,1.449l-1.988-8.702C30.957,21.124,27.859,20.223,26.439,20.024z"></path>
    <path d="M30.957,13.231l1.915,8.392c0,0,1.916,0.354,3.231,0.354c1.314,0,2.953-0.298,2.953-0.298l-0.622-7.684  c0,0-1.269,0.394-2.807,0.394C33.225,14.389,30.957,13.231,30.957,13.231z"></path>
    <path d="M37.762,5.671l0.673,8.323c0,0,3.129-0.786,6.565-3.384L44.998,2C41.053,5.022,37.762,5.671,37.762,5.671z"></path>
    <path d="M39.057,21.679c0,0,3.014-0.559,5.941-2.259v9.051c-3.117,1.496-5.261,1.767-5.261,1.767L39.057,21.679z"></path>
  </symbol>
</svg>